<svg width="751" height="174" viewBox="0 0 751 174" fill="none" xmlns="http://www.w3.org/2000/svg">
<path d="M18.521 3.08879V30.8704H0V3.08879H18.521ZM60.8549 41.4538V3.08879H79.3759V98.3399H60.8549V59.9748H18.521V98.3399H0V41.4538H60.8549Z" fill="url(#paint0_linear_255_1755)"/>
<path d="M137.122 21.3452C141.973 21.3452 146.118 21.9847 149.557 23.2635C152.997 24.5423 155.841 26.1299 158.09 28.0261C160.383 29.8782 162.169 31.7744 163.448 33.7147C167.99 40.1529 170.261 48.7079 170.261 59.3795V98.3399H113.64C107.246 98.3399 101.535 96.3114 96.5079 92.2544C91.2602 87.4477 88.6364 81.9355 88.6364 75.7177V72.5427C88.6364 66.3249 91.2602 60.8127 96.5079 56.0061C101.535 51.9491 107.246 49.9206 113.64 49.9206H150.748C150.175 47.6716 149.381 45.8195 148.367 44.3643C147.926 43.7028 147.286 43.0413 146.449 42.3799C145.611 41.6743 144.442 41.079 142.943 40.5939C141.488 40.1088 139.547 39.8663 137.122 39.8663H100.807V21.3452H137.122ZM107.157 75.7177C107.157 76.6879 107.775 77.6139 109.01 78.4959C110.244 79.3778 111.788 79.8188 113.64 79.8188H151.74V68.4416H113.64C111.788 68.4416 110.244 68.8826 109.01 69.7645C107.775 70.6465 107.157 71.5725 107.157 72.5427V75.7177Z" fill="url(#paint1_linear_255_1755)"/>
<path d="M179.522 53.2279C179.522 47.3629 180.955 42.0271 183.821 37.2204C186.688 32.3697 190.524 28.5111 195.331 25.6448C200.182 22.7784 205.539 21.3452 211.404 21.3452H254.267V39.8663H211.404C207.7 39.8663 204.547 41.1672 201.946 43.7689C199.344 46.3707 198.043 49.5237 198.043 53.2279V66.4572C198.043 70.1614 199.344 73.3144 201.946 75.9162C204.547 78.5179 207.7 79.8188 211.404 79.8188H254.267V98.3399H211.404C205.539 98.3399 200.182 96.9067 195.331 94.0403C190.524 91.174 186.688 87.3375 183.821 82.5308C180.955 77.6801 179.522 72.3222 179.522 66.4572V53.2279Z" fill="url(#paint2_linear_255_1755)"/>
<path d="M315.255 39.8001L292.632 59.4457L342.507 98.406H312.41L282.38 74.924V98.406H263.859V60.504L263.528 60.2394L263.859 59.9087V3.08879H282.38V43.8351L308.375 21.2791H332.85L327.492 39.8001H315.255Z" fill="url(#paint3_linear_255_1755)"/>
<defs>
<linearGradient id="paint0_linear_255_1755" x1="-4.63025" y1="-44.6544" x2="348.088" y2="98.2301" gradientUnits="userSpaceOnUse">
<stop stop-color="#FF3FC0"/>
<stop offset="0.251057" stop-color="#9C41FF"/>
<stop offset="0.514241" stop-color="#02DAFF"/>
<stop offset="0.754353" stop-color="#14F195"/>
<stop offset="1" stop-color="#FECF29"/>
</linearGradient>
<linearGradient id="paint1_linear_255_1755" x1="-4.63025" y1="-44.6544" x2="348.088" y2="98.2301" gradientUnits="userSpaceOnUse">
<stop stop-color="#FF3FC0"/>
<stop offset="0.251057" stop-color="#9C41FF"/>
<stop offset="0.514241" stop-color="#02DAFF"/>
<stop offset="0.754353" stop-color="#14F195"/>
<stop offset="1" stop-color="#FECF29"/>
</linearGradient>
<linearGradient id="paint2_linear_255_1755" x1="-4.63025" y1="-44.6544" x2="348.088" y2="98.2301" gradientUnits="userSpaceOnUse">
<stop stop-color="#FF3FC0"/>
<stop offset="0.251057" stop-color="#9C41FF"/>
<stop offset="0.514241" stop-color="#02DAFF"/>
<stop offset="0.754353" stop-color="#14F195"/>
<stop offset="1" stop-color="#FECF29"/>
</linearGradient>
<linearGradient id="paint3_linear_255_1755" x1="-4.63025" y1="-44.6544" x2="348.088" y2="98.2301" gradientUnits="userSpaceOnUse">
<stop stop-color="#FF3FC0"/>
<stop offset="0.251057" stop-color="#9C41FF"/>
<stop offset="0.514241" stop-color="#02DAFF"/>
<stop offset="0.754353" stop-color="#14F195"/>
<stop offset="1" stop-color="#FECF29"/>
</linearGradient>
</defs>
</svg>
