<svg xmlns="http://www.w3.org/2000/svg" width="343" height="96" viewBox="0 0 343 96" fill="none">
  <path d="M18.521 0.0887909V27.8704H0V0.0887909H18.521ZM60.8549 38.4538V0.0887909H79.3759V95.3399H60.8549V56.9748H18.521V95.3399H0V38.4538H60.8549Z" fill="url(#paint0_linear_592_885)"/>
  <path d="M137.122 18.3452C141.973 18.3452 146.118 18.9847 149.557 20.2635C152.997 21.5423 155.841 23.1299 158.09 25.0261C160.383 26.8782 162.169 28.7744 163.448 30.7147C167.99 37.1529 170.261 45.7079 170.261 56.3795V95.3399H113.64C107.246 95.3399 101.535 93.3114 96.5079 89.2544C91.2602 84.4477 88.6364 78.9355 88.6364 72.7177V69.5427C88.6364 63.3249 91.2602 57.8127 96.5079 53.0061C101.535 48.9491 107.246 46.9206 113.64 46.9206H150.748C150.175 44.6716 149.381 42.8195 148.367 41.3643C147.926 40.7028 147.286 40.0413 146.449 39.3799C145.611 38.6743 144.442 38.079 142.943 37.5939C141.488 37.1088 139.547 36.8663 137.122 36.8663H100.807V18.3452H137.122ZM107.157 72.7177C107.157 73.6879 107.775 74.6139 109.01 75.4959C110.244 76.3778 111.788 76.8188 113.64 76.8188H151.74V65.4416H113.64C111.788 65.4416 110.244 65.8826 109.01 66.7645C107.775 67.6465 107.157 68.5725 107.157 69.5427V72.7177Z" fill="url(#paint1_linear_592_885)"/>
  <path d="M179.522 50.2279C179.522 44.3629 180.955 39.0271 183.821 34.2204C186.688 29.3697 190.524 25.5111 195.331 22.6448C200.182 19.7784 205.539 18.3452 211.404 18.3452H254.267V36.8663H211.404C207.7 36.8663 204.547 38.1672 201.946 40.7689C199.344 43.3707 198.043 46.5237 198.043 50.2279V63.4572C198.043 67.1614 199.344 70.3144 201.946 72.9162C204.547 75.5179 207.7 76.8188 211.404 76.8188H254.267V95.3399H211.404C205.539 95.3399 200.182 93.9067 195.331 91.0403C190.524 88.174 186.688 84.3375 183.821 79.5308C180.955 74.6801 179.522 69.3222 179.522 63.4572V50.2279Z" fill="url(#paint2_linear_592_885)"/>
  <path d="M315.255 36.8001L292.632 56.4457L342.507 95.406H312.41L282.38 71.924V95.406H263.859V57.504L263.528 57.2394L263.859 56.9087V0.0887909H282.38V40.8351L308.375 18.2791H332.85L327.492 36.8001H315.255Z" fill="url(#paint3_linear_592_885)"/>
  <defs>
    <linearGradient id="paint0_linear_592_885" x1="-4.63025" y1="-47.6544" x2="348.088" y2="95.2301" gradientUnits="userSpaceOnUse">
      <stop stop-color="#FF3FC0"/>
      <stop offset="0.251057" stop-color="#9C41FF"/>
      <stop offset="0.514241" stop-color="#02DAFF"/>
      <stop offset="0.754353" stop-color="#14F195"/>
      <stop offset="1" stop-color="#FECF29"/>
    </linearGradient>
    <linearGradient id="paint1_linear_592_885" x1="-4.63025" y1="-47.6544" x2="348.088" y2="95.2301" gradientUnits="userSpaceOnUse">
      <stop stop-color="#FF3FC0"/>
      <stop offset="0.251057" stop-color="#9C41FF"/>
      <stop offset="0.514241" stop-color="#02DAFF"/>
      <stop offset="0.754353" stop-color="#14F195"/>
      <stop offset="1" stop-color="#FECF29"/>
    </linearGradient>
    <linearGradient id="paint2_linear_592_885" x1="-4.63025" y1="-47.6544" x2="348.088" y2="95.2301" gradientUnits="userSpaceOnUse">
      <stop stop-color="#FF3FC0"/>
      <stop offset="0.251057" stop-color="#9C41FF"/>
      <stop offset="0.514241" stop-color="#02DAFF"/>
      <stop offset="0.754353" stop-color="#14F195"/>
      <stop offset="1" stop-color="#FECF29"/>
    </linearGradient>
    <linearGradient id="paint3_linear_592_885" x1="-4.63025" y1="-47.6544" x2="348.088" y2="95.2301" gradientUnits="userSpaceOnUse">
      <stop stop-color="#FF3FC0"/>
      <stop offset="0.251057" stop-color="#9C41FF"/>
      <stop offset="0.514241" stop-color="#02DAFF"/>
      <stop offset="0.754353" stop-color="#14F195"/>
      <stop offset="1" stop-color="#FECF29"/>
    </linearGradient>
  </defs>
</svg>