<svg width="27" height="28" viewBox="0 0 27 28" fill="none" xmlns="http://www.w3.org/2000/svg">
<path d="M15.1978 8.42173C12.2457 8.53228 4.92299 9.37368 4.92299 15.6381C4.92299 22.3632 13.3065 22.6396 16.0465 18.2913C16.4405 18.9177 18.1924 20.5944 18.7925 21.1656L22.2356 17.7263C22.2356 17.7263 20.2776 16.1724 20.2776 14.4835V5.4492C20.2776 3.89537 18.7925 0.394653 13.4702 0.394653C8.13577 0.394653 5.30489 3.77254 5.30489 6.80035L9.76035 7.21798C10.7484 4.17788 13.0459 4.17788 13.0459 4.17788C15.513 4.17174 15.1978 6.00808 15.1978 8.42173ZM15.1978 13.7526C15.1978 18.6659 10.0937 17.9289 10.0937 14.809C10.0937 11.9102 13.155 11.3267 15.1978 11.2592V13.7526ZM23.4419 23.7942C22.9752 24.4083 19.1986 27.9091 12.864 27.9091C6.52938 27.9091 1.67991 23.5178 0.194754 21.706C-0.217452 21.2331 0.255372 21.012 0.528155 21.1963C4.97149 23.9293 11.9123 28.4311 23.1085 23.0572C23.5632 22.8299 23.9148 23.18 23.4419 23.7942ZM25.8545 23.9293C25.4605 24.8997 24.8846 25.5752 24.5694 25.8332C24.236 26.1096 23.9936 25.999 24.1754 25.5998C24.3573 25.2006 25.3453 22.744 24.9453 22.2219C24.5512 21.7122 22.7024 21.9578 22.0356 22.0254C21.3809 22.0868 21.2475 22.1482 21.1869 22.007C21.0475 21.6569 22.5023 21.055 23.4601 20.9322C24.4118 20.8216 25.9455 20.8831 26.2486 21.2823C26.4729 21.5955 26.2486 22.9466 25.8545 23.9293Z" fill="white" fill-opacity="0.4"/>
</svg>
