<svg width="29" height="35" viewBox="0 0 29 35" fill="none" xmlns="http://www.w3.org/2000/svg">
<path fill-rule="evenodd" clip-rule="evenodd" d="M19.8689 5.47715C21.0695 4.02782 21.8756 2.00819 21.6555 0C19.9289 0.0700366 17.8392 1.1506 16.6029 2.59993C15.4923 3.88346 14.5203 5.93739 14.7833 7.90557C16.7072 8.05564 18.674 6.92791 19.8717 5.47715H19.8689ZM24.1883 18.2238C24.2369 23.4151 28.7421 25.1432 28.7907 25.166C28.7549 25.2875 28.0732 27.6273 26.418 30.0443C24.9887 32.134 23.5051 34.2165 21.1667 34.2594C18.8698 34.3008 18.1322 32.8972 15.5052 32.8972C12.8809 32.8972 12.0605 34.2165 9.88507 34.3008C7.6296 34.3866 5.91156 32.0411 4.46795 29.96C1.52355 25.7006 -0.727629 17.9251 2.29538 12.6766C3.79474 10.0696 6.479 8.41869 9.39195 8.37724C11.6074 8.33436 13.6985 9.86802 15.0521 9.86802C16.4071 9.86802 18.9484 8.0242 21.6198 8.29434C22.7389 8.34151 25.8777 8.74601 27.8945 11.6975C27.7316 11.7976 24.1482 13.8844 24.1868 18.2238" fill="white" fill-opacity="0.4"/>
</svg>
