<svg width="32" height="32" viewBox="0 0 32 32" fill="none" xmlns="http://www.w3.org/2000/svg">
<path d="M23.9176 19.5584V12.6457H25.5187V18.1538H28.3225V19.5558H23.9176V19.5584ZM11.0985 15.2504L15.003 12.2474C15.3711 12.5461 15.7367 12.8475 16.1048 13.1475L12.4009 15.9514L13.2014 16.6523L16.9054 13.7489C17.2735 14.0476 17.6391 14.349 18.0073 14.6503C16.7785 15.6256 15.5438 16.5935 14.3033 17.5538L15.1025 18.256L18.8104 15.2491L18.8091 12.647H20.4115V18.1551H23.3149V19.5571H18.91V16.9537C17.6063 17.9534 16.3066 18.957 15.0043 19.9567L11.0985 16.9537C10.9099 17.9088 10.243 18.7356 9.37953 19.1732C9.00514 19.3654 8.59892 19.4879 8.18069 19.5348C7.94092 19.5636 7.69984 19.5571 7.45877 19.5571H4.98902V12.647H7.83742C8.58241 12.6546 9.3034 12.9115 9.88527 13.3768C10.4801 13.8485 10.9046 14.5193 11.0998 15.2504H11.0985ZM6.49314 14.0489V18.2547L7.74177 18.2534C8.00426 18.2449 8.26172 18.1791 8.49617 18.0608C8.73062 17.9424 8.93641 17.7743 9.09915 17.5682C9.37421 17.223 9.54316 16.8054 9.58549 16.366C9.62782 15.9267 9.54171 15.4845 9.33761 15.0932C9.2088 14.8441 9.02796 14.6255 8.80733 14.4524C8.58671 14.2792 8.33145 14.1555 8.05884 14.0896C7.84135 14.0372 7.61599 14.0503 7.39457 14.0476H6.49314V14.0489ZM15.869 0.429321H16.3105C18.78 0.461568 21.2067 1.07802 23.3922 2.22824C25.525 3.35064 27.3738 4.9445 28.7981 6.88865C30.7222 9.50949 31.781 12.6651 31.8274 15.916V16.3877C31.7781 20.3024 30.2656 24.0569 27.5875 26.9126C26.1441 28.4543 24.404 29.6885 22.4718 30.5411C20.5396 31.3937 18.4551 31.8472 16.3433 31.8743H15.8703C14.0118 31.8463 12.1731 31.4888 10.4395 30.8183C8.32765 29.9963 6.4177 28.729 4.83966 27.1026C3.15085 25.3661 1.88399 23.2645 1.137 20.9603C0.661189 19.4821 0.406871 17.9417 0.382324 16.389L0.382324 15.916C0.433637 12.9306 1.33936 10.0225 2.99226 7.5359C4.53648 5.20605 6.66414 3.32142 9.16335 2.0697C11.2475 1.02767 13.5391 0.46708 15.869 0.429321V0.429321ZM15.6685 2.04088C12.5955 2.12855 9.63606 3.22166 7.24389 5.15263C5.28741 6.72764 3.78631 8.79589 2.89531 11.1442C1.60007 14.5897 1.69071 18.4031 3.14818 21.7831C4.15294 24.0935 5.75696 26.0933 7.79418 27.5756C9.6447 28.925 11.7977 29.8004 14.0648 30.1252C15.9725 30.3991 17.9365 30.2877 19.7983 29.7846C22.3467 29.0964 24.6507 27.7063 26.4476 25.7727C28.2459 23.8422 29.4654 21.445 29.9669 18.8548C30.3581 16.8225 30.3035 14.7295 29.807 12.7204C29.2286 10.4043 28.0721 8.27272 26.4456 6.52526C24.8191 4.7778 22.7759 3.47154 20.5071 2.72874C18.9465 2.22003 17.3091 1.98726 15.6685 2.04088Z" fill="white" fill-opacity="0.4"/>
</svg>
