<svg width="29" height="29" viewBox="0 0 29 29" fill="none" xmlns="http://www.w3.org/2000/svg">
<path d="M27.971 11.5134C28.1468 12.4553 28.2426 13.4401 28.2426 14.4678C28.2426 22.5063 22.8626 28.2221 14.737 28.2221C12.8891 28.2227 11.0592 27.8591 9.35186 27.1522C7.64453 26.4453 6.09322 25.4089 4.78656 24.1023C3.47991 22.7956 2.44353 21.2443 1.73663 19.537C1.02974 17.8297 0.666185 15.9998 0.666749 14.1519C0.666185 12.304 1.02974 10.4741 1.73663 8.76678C2.44353 7.05945 3.47991 5.50813 4.78656 4.20148C6.09322 2.89483 7.64453 1.85845 9.35186 1.15155C11.0592 0.444655 12.8891 0.0811023 14.737 0.0816657C18.5361 0.0816657 21.7106 1.47954 24.1462 3.7493L20.1798 7.71566V7.70565C18.7033 6.2992 16.8295 5.5774 14.737 5.5774C10.0945 5.5774 6.32114 9.49945 6.32114 14.1433C6.32114 18.7857 10.0945 22.7164 14.737 22.7164C18.9492 22.7164 21.8164 20.308 22.4053 17.0005H14.737V11.5134H27.9725H27.971Z" fill="white" fill-opacity="0.4"/>
</svg>
