<svg width="73" height="21" viewBox="0 0 73 21" fill="none" xmlns="http://www.w3.org/2000/svg">
<path d="M13.6393 14.9263C13.8643 15.7658 14.2243 16.0915 14.8603 16.0915C15.5203 16.0915 15.8653 15.6971 15.8653 14.9263V0.603006H20.0023V14.9263C20.0023 16.943 19.7383 17.8184 18.7123 18.8402C17.9713 19.5812 16.6033 20.1519 14.8783 20.1519C13.4863 20.1519 12.1513 19.6917 11.3023 18.8432C10.5553 18.0963 10.1443 17.3344 9.5053 14.9263L6.9673 5.37743C6.7453 4.53787 6.3853 4.21221 5.7493 4.21221C5.0893 4.21221 4.7413 4.60659 4.7413 5.37743V19.7007H0.6073V5.37743C0.6073 3.3607 0.8713 2.48529 1.8973 1.46348C2.6383 0.722516 4.0063 0.151855 5.7313 0.151855C7.1233 0.151855 8.4583 0.611968 9.3073 1.46049C10.0543 2.20743 10.4623 2.96931 11.1043 5.37743L13.6393 14.9263ZM68.3323 19.7007L63.5593 4.82171C63.523 4.68075 63.4621 4.54725 63.3793 4.42733C63.312 4.34593 63.2264 4.28137 63.1295 4.23882C63.0326 4.19628 62.9271 4.17693 62.8213 4.18233C62.716 4.1774 62.6111 4.19698 62.5147 4.23951C62.4184 4.28204 62.3333 4.34634 62.2663 4.42733C62.1835 4.54722 62.1225 4.68073 62.0863 4.82171L57.3133 19.7007H53.0383L58.2553 3.44734C58.5253 2.60181 58.9153 1.88176 59.4073 1.40372C60.2533 0.582091 61.2493 0.151855 62.8213 0.151855C64.3963 0.151855 65.3923 0.582092 66.2383 1.40671C66.7303 1.88475 67.1203 2.60181 67.3903 3.44734L72.6073 19.7007H68.3323ZM47.2003 19.7007C49.9093 19.7007 51.2323 19.1271 52.2763 18.0933C53.4313 16.949 53.9833 15.6971 53.9833 13.8298C53.9833 12.1776 53.3773 10.6508 52.4533 9.73656C51.2443 8.54146 49.7443 8.16201 47.2963 8.16201H43.8703C42.5623 8.16201 42.0403 8.00366 41.6263 7.60032C41.3443 7.32246 41.2093 6.91313 41.2093 6.42613C41.2093 5.92419 41.3293 5.42822 41.6773 5.08762C41.9863 4.78884 42.4063 4.64842 43.2103 4.64842H53.1133V0.603006H43.9663C41.2573 0.603006 39.9373 1.17665 38.8933 2.21042C37.7383 3.35472 37.1833 4.60659 37.1833 6.47394C37.1833 8.12616 37.7923 9.6529 38.7133 10.5672C39.9253 11.7623 41.4253 12.1417 43.8733 12.1417H47.2963C48.6073 12.1417 49.1263 12.3 49.5403 12.7034C49.8253 12.9813 49.9603 13.3906 49.9603 13.8776C49.9603 14.3825 49.8373 14.8785 49.4893 15.2161C49.1833 15.5149 48.7633 15.6553 47.9593 15.6553H37.7443L33.8263 3.44734C33.5563 2.60181 33.1663 1.88176 32.6743 1.40372C31.8283 0.582091 30.8293 0.151855 29.2573 0.151855C27.6853 0.151855 26.6863 0.582092 25.8433 1.40671C25.3483 1.88475 24.9613 2.60181 24.6883 3.44734L19.4743 19.7007H23.7463L28.5223 4.82171C28.5586 4.68075 28.6195 4.54725 28.7023 4.42733C28.7693 4.34634 28.8544 4.28204 28.9507 4.23951C29.0471 4.19698 29.152 4.1774 29.2573 4.18233C29.5033 4.18233 29.6833 4.26599 29.8153 4.42733C29.8982 4.54719 29.9591 4.6807 29.9953 4.82171L34.7683 19.7007H47.2003Z" fill="white" fill-opacity="0.4"/>
</svg>
