<svg width="27" height="32" viewBox="0 0 27 32" fill="none" xmlns="http://www.w3.org/2000/svg">
<path d="M26.0974 11.765C26.2984 12.7476 26.276 13.9409 26.0304 15.3447C25.0589 20.5387 21.9043 23.1357 16.5667 23.1357H15.8297C15.5506 23.1357 15.3049 23.2322 15.0927 23.4253C14.8806 23.6183 14.7466 23.8669 14.6907 24.171L14.6237 24.5044L13.7025 30.5758L13.669 30.839C13.6132 31.1432 13.4764 31.3918 13.2586 31.5848C13.0409 31.7778 12.7924 31.8743 12.5133 31.8743H8.30905C8.07455 31.8743 7.8903 31.7866 7.7563 31.6111C7.62231 31.4357 7.57206 31.2251 7.60556 30.9794C7.70605 30.3243 7.85401 29.3417 8.04943 28.0315C8.24484 26.7212 8.3928 25.7386 8.4933 25.0835C8.5938 24.4284 8.74454 23.4486 8.94554 22.1443C9.14654 20.8399 9.29729 19.8602 9.39779 19.2051C9.45362 18.7723 9.6937 18.5558 10.118 18.5558H12.3123C13.7974 18.5792 15.1151 18.4564 16.2652 18.1873C18.2194 17.7311 19.8218 16.8888 21.0724 15.6605C22.2114 14.5492 23.0768 13.1103 23.6686 11.3438C23.9366 10.525 24.1321 9.74702 24.2549 9.01002C24.2661 8.93983 24.28 8.89596 24.2968 8.87842C24.3135 8.86087 24.3331 8.85502 24.3554 8.86087C24.3777 8.86672 24.4112 8.88719 24.4559 8.92229C25.338 9.61248 25.8852 10.56 26.0974 11.765ZM23.2164 6.81659C23.2164 8.06831 22.9596 9.44871 22.4459 10.9578C21.5526 13.6835 19.8664 15.526 17.3875 16.4852C16.1256 16.9532 14.7187 17.1988 13.1665 17.2222C13.1665 17.2339 12.664 17.2398 11.659 17.2398L10.1515 17.2222C9.03487 17.2222 8.37605 17.7837 8.17505 18.9068C8.15272 19.0004 7.67814 22.1004 6.75131 28.2069C6.74015 28.3239 6.67315 28.3824 6.55032 28.3824H1.60912C1.36345 28.3824 1.15966 28.2859 0.997746 28.0929C0.835831 27.8999 0.771623 27.6747 0.805123 27.4173L4.69108 1.605C4.74692 1.26575 4.90046 0.98499 5.1517 0.762723C5.40295 0.540455 5.69049 0.429321 6.01432 0.429321H16.0307C16.4104 0.429321 16.9548 0.50536 17.6638 0.657438C18.3729 0.809516 18.9954 0.996689 19.5314 1.21896C20.7263 1.69859 21.6391 2.41803 22.27 3.37729C22.9009 4.33655 23.2164 5.48299 23.2164 6.81659Z" fill="white" fill-opacity="0.4"/>
</svg>
