<svg width="35" height="24" viewBox="0 0 35 24" fill="none" xmlns="http://www.w3.org/2000/svg">
<path d="M14.3208 11.5344C14.5966 9.64479 14.5609 8.65713 11.7937 8.81007C8.61634 8.98731 5.39608 9.18884 0.574989 10.278C0.42695 10.8916 0.351631 11.5206 0.350586 12.1518C0.350586 14.3244 1.23391 16.4255 2.90478 18.2321C4.41986 19.8673 6.55812 21.2266 9.08802 22.1656C10.0275 22.5106 10.9892 22.7913 11.9667 23.0061C12.1525 22.2528 13.3374 17.4217 14.2764 11.8245L14.3193 11.5358L14.3208 11.5344ZM34.4298 10.278C29.6102 9.18884 26.3914 8.98874 23.2154 8.8115C20.4468 8.65856 20.4111 9.64622 20.6884 11.5358L20.7541 11.9617C21.6832 17.4617 22.8381 22.1956 23.0382 22.9961C29.7874 21.4538 34.6543 17.1773 34.6543 12.1518C34.6543 11.5186 34.5771 10.894 34.4298 10.278ZM33.7281 8.38556C33.2945 7.543 32.7462 6.76469 32.0986 6.07293C30.5835 4.43778 28.4467 3.0785 25.9168 2.13944C23.3669 1.19323 20.4568 0.694397 17.5024 0.694397C14.5466 0.694397 11.6379 1.19466 9.08802 2.13801C6.55812 3.0785 4.41986 4.43921 2.90478 6.07293C2.25773 6.7653 1.70985 7.54408 1.27678 8.38699C4.56994 7.59086 10.2029 6.53888 15.4328 6.42883C15.9373 6.41739 16.2846 6.57891 16.5133 6.86763C16.7935 7.2221 16.7706 8.4799 16.7635 9.04305L16.6148 23.5935C17.2073 23.6134 17.8004 23.6134 18.3929 23.5935L18.2442 9.04305C18.2371 8.4799 18.2156 7.2221 18.4944 6.86763C18.7231 6.57891 19.0704 6.41739 19.5749 6.4274C24.8034 6.53888 30.4335 7.58943 33.7281 8.38556Z" fill="white" fill-opacity="0.4"/>
</svg>
