<svg width="30" height="30" viewBox="0 0 30 30" fill="none" xmlns="http://www.w3.org/2000/svg">
<path d="M15.0576 7.24532L18.0056 3.64105C18.0056 3.64105 23.0618 3.74825 28.0954 6.08757C26.8066 8.03621 24.2469 8.99147 24.2469 8.99147C24.073 7.27748 22.8724 6.8594 19.0609 6.8594L15.0576 29.445L11.0305 6.85464C7.24279 6.85464 6.04217 7.27629 5.86707 8.98909C5.86707 8.98909 3.31097 8.04216 2.02101 6.09472C7.05341 3.75421 12.1096 3.64582 12.1096 3.64582L15.0576 7.24532L15.0528 7.2477H15.0576V7.24532ZM15.0576 2.60122C19.1252 2.56549 23.7836 3.23012 28.5504 5.31693C29.1876 4.16394 29.3508 3.65534 29.3508 3.65534C24.1397 1.5876 19.2598 0.876509 15.0576 0.858643C10.8554 0.876509 5.97546 1.58521 0.764404 3.65654C0.764404 3.65654 0.996669 4.28186 1.56482 5.31931C6.3316 3.22774 10.99 2.56787 15.0576 2.59765V2.60122Z" fill="white" fill-opacity="0.4"/>
</svg>
